<svg xmlns="http://www.w3.org/2000/svg" width="256" height="256" fill="none" viewBox="0 0 256 256" id="mastercard">
  <rect width="224" height="224" x="16" y="16" fill="#EEE" rx="70"></rect>
  <path fill="#FF5F00" d="M109.975 95.6172H146.026V160.396H109.975V95.6172Z"></path>
  <path fill="#EB001B" d="M112.264 128.004C112.264 114.842 118.444 103.168 127.943 95.6142C120.962 90.1207 112.15 86.8018 102.536 86.8018C79.7601 86.8018 61.334 105.228 61.334 128.004C61.334 150.779 79.7601 169.205 102.536 169.205C112.15 169.205 120.962 165.887 127.943 160.393C118.444 152.953 112.264 141.165 112.264 128.004Z"></path>
  <path fill="#F79E1B" d="M194.666 128.004C194.666 150.779 176.24 169.205 153.464 169.205C143.85 169.205 135.038 165.887 128.057 160.393C137.67 152.839 143.736 141.165 143.736 128.004C143.736 114.842 137.556 103.168 128.057 95.6142C135.038 90.1207 143.85 86.8018 153.464 86.8018C176.24 86.8018 194.666 105.343 194.666 128.004Z"></path>
</svg>
